<?xml version="1.0" encoding="UTF-8" standalone="no"?>
<svg
   viewBox="0 0 64 64"
   version="1.1"
   id="svg613"
   sodipodi:docname="ICON_TOOLBAR_TWITCH.svg"
   inkscape:version="1.1.1 (3bf5ae0d25, 2021-09-20)"
   xmlns:inkscape="http://www.inkscape.org/namespaces/inkscape"
   xmlns:sodipodi="http://sodipodi.sourceforge.net/DTD/sodipodi-0.dtd"
   xmlns="http://www.w3.org/2000/svg"
   xmlns:svg="http://www.w3.org/2000/svg">
  <defs
     id="defs617" />
  <sodipodi:namedview
     id="namedview615"
     pagecolor="#ffffff"
     bordercolor="#666666"
     borderopacity="1.0"
     inkscape:pageshadow="2"
     inkscape:pageopacity="0.0"
     inkscape:pagecheckerboard="0"
     showgrid="false"
     inkscape:zoom="12.915747"
     inkscape:cx="30.311835"
     inkscape:cy="35.96385"
     inkscape:window-width="3440"
     inkscape:window-height="1377"
     inkscape:window-x="-8"
     inkscape:window-y="-8"
     inkscape:window-maximized="1"
     inkscape:current-layer="svg613" />
  <title
     id="title605">ICON_TOOLBAR_TWITCH</title>
  <g
     id="g478"
     transform="matrix(1.4183304,0,0,1.3804324,1.2262708,1.1202573)">
    <path
       d="m 7.6364847,23.506705 c 0.9758989,-0.05076 2.6427743,-0.0511 3.7041663,-7.41e-4 1.061393,0.05035 0.26293,0.09188 -1.7743617,0.0923 -2.0372916,4.23e-4 -2.9057038,-0.04078 -1.9298046,-0.09154 z m 11.6398593,-8.73e-4 c 1.265946,-0.04839 3.409071,-0.04862 4.762499,-5.03e-4 1.353429,0.04812 0.317654,0.08771 -2.301721,0.08799 -2.619375,2.65e-4 -3.726725,-0.03909 -2.460778,-0.08749 z"
       id="path488" />
    <path
       d="m 19.434581,34.882678 c 1.207456,-0.04914 3.112456,-0.04886 4.233333,5.29e-4 1.120877,0.04947 0.132958,0.08967 -2.195375,0.08934 -2.328333,-2.65e-4 -3.245414,-0.04081 -2.037958,-0.08995 z m 14.944378,0.0021 c 0.695616,-0.05468 1.767178,-0.05402 2.381249,0.0016 0.614075,0.05549 0.04494,0.100229 -1.264753,0.09942 -1.309687,-7.93e-4 -1.81211,-0.04621 -1.116496,-0.100888 z M 7.1268768,26.418254 c 0.6956147,-0.05468 1.7671772,-0.05402 2.38125,0.0015 0.6140732,0.05549 0.044933,0.10023 -1.2647541,0.09942 -1.3096875,-7.94e-4 -1.8121106,-0.04621 -1.1164959,-0.100891 z m 13.1014542,-0.0022 c 1.207456,-0.04914 3.112456,-0.04886 4.233333,6.09e-4 1.120877,0.04948 0.132958,0.08968 -2.195375,0.08935 -2.328333,-3.35e-4 -3.245414,-0.04081 -2.037958,-0.08995 z"
       id="path486" />
    <path
       d="m 27.542218,15.235977 c 0,-4.147344 0.03658,-5.8439847 0.08128,-3.770313 0.0447,2.073672 0.0447,5.466953 0,7.540625 -0.0447,2.073672 -0.08128,0.377031 -0.08128,-3.770312 z M 9.3678518,16.648248 c 0.1819011,-0.0734 0.4795573,-0.0734 0.6614582,0 0.181901,0.0734 0.03307,0.133452 -0.330729,0.133452 -0.3638021,0 -0.5126302,-0.06005 -0.3307292,-0.133452 z"
       id="path484" />
    <path
       d="m 13.210227,25.02556 c 0,-0.654844 0.0516,-0.922735 0.114662,-0.595313 0.06306,0.327422 0.06306,0.863203 0,1.190625 -0.06306,0.327422 -0.114662,0.05953 -0.114662,-0.595312 z M 4.7878108,15.103685 c 1.33e-4,-4.074583 0.036861,-5.7044891 0.081618,-3.622013 0.044757,2.082476 0.044648,5.416226 -2.424e-4,7.408333 -0.04489,1.992107 -0.081509,0.288263 -0.081376,-3.78632 z M 10.937831,6.5712808 c 2.791639,-0.042822 7.435077,-0.042883 10.318749,-1.36e-4 2.883674,0.042747 0.599605,0.077783 -5.075708,0.077858 -5.675312,7.46e-5 -8.0346805,-0.0349 -5.243041,-0.077722 z"
       id="path482" />
    <path
       d="m 29.410039,37.616599 -3.704167,-2.788042 -4.440269,-0.0067 c -7.324782,-0.01105 -8.39175,-0.854774 -4.643435,-3.671861 l 2.469121,-1.855695 4.652205,-0.08384 c 8.217665,-0.148093 9.498926,-1.688701 9.501527,-11.424785 l 0.0016,-5.520113 2.711979,0.103747 c 5.428001,0.207648 5.598782,0.535407 5.698479,10.936479 0.10345,10.792235 -0.140573,11.300068 -5.509781,11.466406 l -2.883244,0.08932 -0.07486,2.771571 -0.07486,2.771574 -3.704166,-2.788044 z M 10.492331,29.165625 v -2.77033 L 7.6003685,26.30574 C 2.2211372,26.139162 1.9783914,25.634771 2.0818722,14.839102 2.1945589,3.0830145 1.0142125,3.9911851 16.180872,3.9911851 c 15.29693,0 14.21093,-0.8902873 14.09713,11.5566159 -0.09994,10.930366 0.114096,10.620845 -7.434869,10.751876 l -4.810177,0.08349 -3.439583,2.576843 c -1.891771,1.417264 -3.588412,2.66664 -3.770313,2.776394 -0.256231,0.154602 -0.330729,-0.424479 -0.330729,-2.570781 z m 4.920564,-4.140065 1.769753,-1.322917 h 4.724633 c 6.390394,0 5.782966,0.901197 5.782966,-8.579755 V 7.601467 L 26.993107,7.0530969 C 26.315312,6.5199429 26.013968,6.5047268 16.133165,6.5047268 H 5.9703614 L 5.3093103,7.1657779 4.6482592,7.826829 l 0.077765,7.562666 c 0.094168,9.157787 -0.3960053,8.313214 4.8246891,8.312983 l 3.7197427,-1.64e-4 -0.09168,1.323081 c -0.114611,1.653985 0.02168,1.653995 2.234121,1.65e-4 z M 8.5489633,16.075039 C 8.0024458,15.471144 7.9956317,14.98938 8.522959,14.236515 c 0.8071246,-1.152332 2.763122,-0.432173 2.763122,1.017326 0,1.145865 -1.9215613,1.722378 -2.7371177,0.821198 z m 6.4942007,0.166354 c -0.449533,-0.449533 -0.393761,-1.685108 0.09827,-2.177142 0.93555,-0.93555 2.494643,-0.22451 2.494643,1.137708 0,0.942886 -0.444035,1.356934 -1.455209,1.356934 -0.451114,0 -0.963083,-0.142875 -1.137708,-0.3175 z m 6.448274,-0.09827 c -0.890066,-0.890065 -0.165546,-2.494642 1.126414,-2.494642 0.628589,0 1.632812,0.858784 1.632812,1.396337 0,1.25886 -1.858785,1.998747 -2.759226,1.098305 z"
       id="path480" />
  </g>
</svg>
